/* XPM */
static char * chicken_xpm[] = {
"32 32 28 1",
" 	c #72CE49",
".	c #A3E971",
"+	c #000000",
"@	c #FF0000",
"#	c #F0FFFF",
"$	c #C6D5D5",
"%	c #B79F40",
"&	c #E6F5F5",
"*	c #EBFAFA",
"=	c #E3F2F2",
"-	c #CDDCDC",
";	c #CBDADA",
">	c #DFEEEE",
",	c #E0EFEF",
"'	c #CEDDDD",
")	c #97A6A6",
"!	c #ABBABA",
"~	c #B1C0C0",
"{	c #606F6F",
"]	c #CCDBDB",
"^	c #546363",
"/	c #7F8E8E",
"(	c #6CC445",
"_	c #67BB42",
":	c #E7CC60",
"<	c #62B23E",
"[	c #94D466",
"}	c #9BDE6B",
"              ..                ",
"              ..                ",
"        ++      ..      ..      ",
"        ++      ..      ..      ",
"      ++@@++++  ..      ..  ..  ",
"      ++@@++++  ..      ..  ..  ",
"    ++@@##$$$$++        ++  ..  ",
"    ++@@##$$$$++        ++  ..  ",
"    ++@@##++##$$++    ++$$++    ",
"    ++@@##++##$$++    ++$$++    ",
"  ++%%&&&&&&&&##$$++++$$**$$++  ",
"  ++%%&&&&&&&&##$$++++$$**$$++  ",
"    ++@@@@&&&&==--;;--&&**$$++  ",
"    ++@@@@&&&&==--;;--&&**$$++  ",
"    ++@@>>>>,,''######$$$$))++  ",
"    ++@@>>>>,,''######$$$$))++  ",
"..    ++))!!,,''########~~++    ",
"..    ++))!!,,''########~~++    ",
"..      ++{{!!))]]####$$))++    ",
"..      ++{{!!))]]####$$))++    ",
"          ++^^//))$$$$))++      ",
"          ++^^//))$$$$))++      ",
"            ++^^^^//^^++        ",
"            ++^^^^//^^++        ",
"        ((__++%%++%%++((..      ",
"        ((__++%%++%%++((..      ",
"..    ((__++::++::++<<[[((      ",
"..    ((__++::++::++<<[[((      ",
"  ..    ((__<<<<<<<<__}}        ",
"  ..    ((__<<<<<<<<__}}        ",
"  ..                            ",
"  ..                            "};
