/* XPM */
static char * mais_xpm[] = {
"32 32 207 2",
"  	c #72CE49",
". 	c #A3E971",
"+ 	c #6DC545",
"@ 	c #6BBF43",
"# 	c #71CB48",
"$ 	c #83CB47",
"% 	c #A5C541",
"& 	c #92A23F",
"* 	c #769C4E",
"= 	c #949D58",
"- 	c #BEB04C",
"; 	c #80CC48",
"> 	c #AFB23C",
", 	c #BCAD36",
"' 	c #DCAB3E",
") 	c #E9A73D",
"! 	c #CC7B4E",
"~ 	c #6B6745",
"{ 	c #86C645",
"] 	c #709B36",
"^ 	c #74CC48",
"/ 	c #A6C74E",
"( 	c #DFB543",
"_ 	c #FFC640",
": 	c #F6DA59",
"< 	c #FFC748",
"[ 	c #E29D47",
"} 	c #697544",
"| 	c #79CB47",
"1 	c #83943A",
"2 	c #89C246",
"3 	c #77CD49",
"4 	c #83CE4B",
"5 	c #A1CE53",
"6 	c #B9DB66",
"7 	c #FCBC42",
"8 	c #FEBB3D",
"9 	c #F2AC38",
"0 	c #FDAB36",
"a 	c #838D44",
"b 	c #7ACC47",
"c 	c #6DB946",
"d 	c #2B6443",
"e 	c #96C04C",
"f 	c #97CF54",
"g 	c #93CA52",
"h 	c #ADD65C",
"i 	c #ECB643",
"j 	c #FECA49",
"k 	c #F3A534",
"l 	c #EC902E",
"m 	c #FF8927",
"n 	c #837236",
"o 	c #78CD4C",
"p 	c #75B94E",
"q 	c #2E6B43",
"r 	c #99C457",
"s 	c #A1CD5C",
"t 	c #CAE583",
"u 	c #FFE159",
"v 	c #F4B23A",
"w 	c #E68F31",
"x 	c #B18737",
"y 	c #718C47",
"z 	c #18FDBE",
"A 	c #2CCF86",
"B 	c #69C752",
"C 	c #66C452",
"D 	c #72CA5F",
"E 	c #85C05B",
"F 	c #1D5A44",
"G 	c #D0B97C",
"H 	c #EFF193",
"I 	c #EEB33D",
"J 	c #EA9532",
"K 	c #E47425",
"L 	c #F78828",
"M 	c #AFBF3F",
"N 	c #269C80",
"O 	c #59BA63",
"P 	c #60CA67",
"Q 	c #72CF4D",
"R 	c #7BC86F",
"S 	c #9DAC74",
"T 	c #26543E",
"U 	c #8C843E",
"V 	c #FFD24D",
"W 	c #FEB73B",
"X 	c #EB9F36",
"Y 	c #F79932",
"Z 	c #EA7C25",
"` 	c #D08533",
" .	c #AED147",
"..	c #26B894",
"+.	c #3F8B49",
"@.	c #53B069",
"#.	c #78D883",
"$.	c #6FB761",
"%.	c #34613C",
"&.	c #A68C3D",
"*.	c #EEAD3A",
"=.	c #EC7423",
"-.	c #FB8B29",
";.	c #FF7C23",
">.	c #AFA355",
",.	c #7ED04A",
"'.	c #58C698",
").	c #245B42",
"!.	c #5AD89E",
"~.	c #72C85E",
"{.	c #818F63",
"].	c #DC852D",
"^.	c #E37925",
"/.	c #F37C25",
"(.	c #D06B27",
"_.	c #93A15E",
":.	c #97E77F",
"<.	c #326D42",
"[.	c #358549",
"}.	c #4C703D",
"|.	c #9A873B",
"1.	c #E77E28",
"2.	c #896235",
"3.	c #DAF08E",
"4.	c #69D163",
"5.	c #377B46",
"6.	c #337D48",
"7.	c #69974C",
"8.	c #DA9133",
"9.	c #DF7925",
"0.	c #E96D22",
"a.	c #EE7D28",
"b.	c #C66A24",
"c.	c #525B38",
"d.	c #87CB5C",
"e.	c #32593D",
"f.	c #347344",
"g.	c #66964A",
"h.	c #DE7E2B",
"i.	c #EA8E32",
"j.	c #E49332",
"k.	c #F37422",
"l.	c #994C22",
"m.	c #83BD5A",
"n.	c #34D7A1",
"o.	c #428C49",
"p.	c #6A9B4D",
"q.	c #E5832C",
"r.	c #FB902E",
"s.	c #BB5E22",
"t.	c #452C24",
"u.	c #65954D",
"v.	c #2F673D",
"w.	c #2C7846",
"x.	c #55633A",
"y.	c #DE7426",
"z.	c #F18327",
"A.	c #846332",
"B.	c #1D493B",
"C.	c #60894A",
"D.	c #8FC852",
"E.	c #285E42",
"F.	c #2B7346",
"G.	c #5A703D",
"H.	c #FB8325",
"I.	c #7E6431",
"J.	c #3B8446",
"K.	c #397C46",
"L.	c #375630",
"M.	c #6DA344",
"N.	c #70CE4B",
"O.	c #4A633D",
"P.	c #8E642E",
"Q.	c #418F47",
"R.	c #558C38",
"S.	c #70A24A",
"T.	c #70CD49",
"U.	c #2C5A3C",
"V.	c #5B8B4A",
"W.	c #537B44",
"X.	c #598F2E",
"Y.	c #63A939",
"Z.	c #94692F",
"`.	c #294734",
" +	c #2A543A",
".+	c #3D5B3C",
"++	c #8FD54E",
"@+	c #6DC847",
"#+	c #266C3E",
"$+	c #37563D",
"%+	c #356025",
"&+	c #316419",
"*+	c #508E27",
"=+	c #509C28",
"-+	c #7AD54D",
";+	c #75D04A",
">+	c #469435",
",+	c #956A31",
"'+	c #547522",
")+	c #4C741E",
"!+	c #6EA836",
"~+	c #65B83E",
"{+	c #4C9332",
"]+	c #236D3E",
"^+	c #346141",
"/+	c #5FC052",
"(+	c #6DCB4E",
"                            . .                                 ",
"                            . .                                 ",
"                                . .             . .             ",
"                                . .             . .             ",
"                            + @ . .             . .     . .     ",
"                              # . .     $ % & * = -     . .     ",
"            . .                       ; > , ' ) ! ~ {   . .     ",
"            . .             ] ^       / ( _ : < [ } |   . .     ",
"            . .             1 2 3 4 5 6 7 8 9 0 7 a b           ",
"            . .           c d e f g h 0 i j k l m n o           ",
"                          p q r s t u 9 v 8 w 0 x y             ",
"          z A B C       D E F G H I i 9 I J K L M               ",
"              q N O P Q R S T U V 9 W X J Y Z `  .              ",
"              ..d +.@.#.$.%.&.*.8 v 8 w =.-.;.>.,.              ",
"            . '.).+.!.~.{.n 7 *.Y w Y ].^./.(._.                ",
"            . :.q <.[.}.|.< 8 l -.Z Y w 1.m 2.3.                ",
". .           4.5.).6.7.) ) *.8.9.0.a.].^.b.c.d.                ",
". .             e.f.[.g.' k h.].i.j.Z k.;.l.m.                  ",
". .             n.o.[.p.) -.J q.r.l L Z s.t.u.                  ",
". .             v.v.w.x.y.a.K k.k.^.z.A.T B.d }.C.D.            ",
"                f.E.F.G.1.-.z.Z -.k.H.I.F 5.J.K.f.L.M.          ",
"              N.f.E.F.O.(.k.=.K 1.K P.e.v.T f.Q.Q.R.S.          ",
"              T.5.E.f.d c.k.=.Z ;.A.T F d f.U.V.W.X.Y.          ",
"                f.).f.).E.=.;.Z Z.F d U.`. +.+++                ",
"                @+#+).q $+K k.A.%+&+*+=+-+;+    . .             ",
"                  >+d 6..+,+'+)+!+~+            . .             ",
". .               {+]+d <.^+/+(+            . .                 ",
". .                                         . .                 ",
"    . .                                     . .                 ",
"    . .                                     . .                 ",
"    . .                                                         ",
"    . .                                                         "};
