/* XPM */
static char * grass_xpm[] = {
"32 32 2 1",
" 	c #72CE49",
".	c #A3E971",
"              ..                ",
"              ..                ",
"                ..      ..      ",
"                ..      ..      ",
"                ..      ..  ..  ",
"                ..      ..  ..  ",
"      ..                    ..  ",
"      ..                    ..  ",
"      ..                        ",
"      ..                        ",
"                    ..          ",
"                    ..          ",
"                      ..        ",
"                      ..        ",
"      ..              ..        ",
"      ..              ..        ",
"..      ..                      ",
"..      ..                      ",
"..      ..                      ",
"..      ..                      ",
"                ..              ",
"                ..              ",
"                ..              ",
"                ..              ",
"                        ..      ",
"                        ..      ",
"..                    ..        ",
"..                    ..        ",
"  ..                  ..        ",
"  ..                  ..        ",
"  ..                            ",
"  ..                            "};
