/* XPM */
static char * wall_xpm[] = {
"32 32 215 2",
"  	c #72CE49",
". 	c #A3E971",
"+ 	c #6ECF66",
"@ 	c #70B94B",
"# 	c #84BE5D",
"$ 	c #95D368",
"% 	c #65B644",
"& 	c #63B143",
"* 	c #70C34A",
"= 	c #63B441",
"- 	c #73C14C",
"; 	c #6FCF61",
"> 	c #6CBC4F",
", 	c #4A2A13",
"' 	c #934500",
") 	c #5F6C32",
"! 	c #6DC04C",
"~ 	c #67B643",
"{ 	c #792E00",
"] 	c #733402",
"^ 	c #63AF42",
"/ 	c #6FC54B",
"( 	c #546F27",
"_ 	c #482612",
": 	c #6DBD4F",
"< 	c #6ED06B",
"[ 	c #3C2516",
"} 	c #8D4300",
"| 	c #9C5D02",
"1 	c #4B531E",
"2 	c #6DC14D",
"3 	c #65B242",
"4 	c #925600",
"5 	c #955901",
"6 	c #6C3104",
"7 	c #6EC44C",
"8 	c #4D5D21",
"9 	c #6EBC51",
"0 	c #6CCF73",
"a 	c #6FB44B",
"b 	c #7B4D02",
"c 	c #3D2900",
"d 	c #744A04",
"e 	c #575E23",
"f 	c #73C14E",
"g 	c #67B342",
"h 	c #8B5401",
"i 	c #4E3300",
"j 	c #543500",
"k 	c #68AE41",
"l 	c #96D569",
"m 	c #57792A",
"n 	c #523117",
"o 	c #6FB04C",
"p 	c #69CF7E",
"q 	c #6CD071",
"r 	c #345C31",
"s 	c #9C6000",
"t 	c #492C00",
"u 	c #634106",
"v 	c #581C00",
"w 	c #5FA643",
"x 	c #569132",
"y 	c #B56700",
"z 	c #5D3A01",
"A 	c #875202",
"B 	c #539232",
"C 	c #65B545",
"D 	c #793903",
"E 	c #633D01",
"F 	c #427537",
"G 	c #6AD07E",
"H 	c #6CD075",
"I 	c #48793D",
"J 	c #2B0E03",
"K 	c #67AD47",
"L 	c #5FA139",
"M 	c #A25E01",
"N 	c #532B00",
"O 	c #589B38",
"P 	c #66B346",
"Q 	c #57913F",
"R 	c #69D182",
"S 	c #71CE4E",
"T 	c #6AD180",
"U 	c #48703D",
"V 	c #6C4303",
"W 	c #320D01",
"X 	c #6EB44B",
"Y 	c #588F33",
"Z 	c #5B3500",
"` 	c #61AD3E",
" .	c #69B548",
"..	c #589343",
"+.	c #69D287",
"@.	c #6DD06F",
"#.	c #749C52",
"$.	c #56814F",
"%.	c #0B2436",
"&.	c #733D0A",
"*.	c #2F1808",
"=.	c #32613C",
"-.	c #61AF4B",
";.	c #2D241B",
">.	c #A46202",
",.	c #243B23",
"'.	c #6DC34A",
").	c #559C42",
"!.	c #784008",
"~.	c #2D170A",
"{.	c #183439",
"].	c #5B904E",
"^.	c #75A256",
"/.	c #4C3116",
"(.	c #420F06",
"_.	c #A3650C",
":.	c #AB6401",
"<.	c #7A4E0C",
"[.	c #442312",
"}.	c #744E11",
"|.	c #B46C04",
"1.	c #854F02",
"2.	c #664213",
"3.	c #BB6F00",
"4.	c #3C1900",
"5.	c #63420A",
"6.	c #482409",
"7.	c #6E490B",
"8.	c #755112",
"9.	c #6C4B12",
"0.	c #724D0F",
"a.	c #532C0B",
"b.	c #7D530C",
"c.	c #6B450A",
"d.	c #80560C",
"e.	c #451B00",
"f.	c #724601",
"g.	c #391603",
"h.	c #424B2F",
"i.	c #1C131B",
"j.	c #242426",
"k.	c #35230B",
"l.	c #432900",
"m.	c #422601",
"n.	c #2C211B",
"o.	c #3E2500",
"p.	c #262825",
"q.	c #49512F",
"r.	c #7ACF4E",
"s.	c #94D660",
"t.	c #3B4C3B",
"u.	c #230906",
"v.	c #210605",
"w.	c #556E44",
"x.	c #8BBC5D",
"y.	c #241B1B",
"z.	c #8EC263",
"A.	c #4E6B41",
"B.	c #45683C",
"C.	c #95D761",
"D.	c #7ED051",
"E.	c #A0E962",
"F.	c #334639",
"G.	c #5C7748",
"H.	c #92CC65",
"I.	c #2A1E1B",
"J.	c #9FD566",
"K.	c #4D733D",
"L.	c #9EE761",
"M.	c #A9EA6F",
"N.	c #89BE61",
"O.	c #77500E",
"P.	c #466340",
"Q.	c #568E3F",
"R.	c #88D755",
"S.	c #3C2818",
"T.	c #3E1C0C",
"U.	c #599841",
"V.	c #76D04B",
"W.	c #98DF5E",
"X.	c #93C664",
"Y.	c #47633F",
"Z.	c #9E6308",
"`.	c #51833E",
" +	c #587144",
".+	c #3C5237",
"++	c #96DE5D",
"@+	c #202C30",
"#+	c #732D00",
"$+	c #AE6A00",
"%+	c #485D40",
"&+	c #87BD61",
"*+	c #613400",
"=+	c #1B070C",
"-+	c #374D3A",
";+	c #2C3C31",
">+	c #7CD24E",
",+	c #7DD14F",
"'+	c #93CB63",
")+	c #54431D",
"!+	c #2A0102",
"~+	c #1F0809",
"{+	c #230A0A",
"]+	c #1B0003",
"^+	c #95C45E",
"/+	c #A3DB6A",
"(+	c #6A7B3D",
"_+	c #3B1308",
":+	c #1F0805",
"<+	c #220709",
"[+	c #617F49",
"}+	c #ACE369",
"|+	c #4F3B1A",
"1+	c #3B341D",
"2+	c #74CE4A",
"                            . .                                 ",
"                            . .                                 ",
"                                . .             . .             ",
"                                . .             . .             ",
"                                . .             . .     . .     ",
"                                . .             . .     . .     ",
"            . .                                         . .     ",
"            . .                                         . .     ",
"        + @ # $               % &               * = -           ",
"      ; > , ' ) !           ~ { ] ^           / ( ' _ :         ",
"    < : [ } | } 1 2       3 ] 4 5 6 ^   . . 7 8 ' | } [ 9 ;     ",
"  0 a , } b c d ' e f   g 6 h i j 4 ] k . l m } d c b ' n o p   ",
"  q r { s t u i h v w   x y z z z z A B   C D s t E i h v F G   ",
"  H I 6 5 j z u u J K   L M E z E E N O   P ] 4 j E z E J Q R   ",
"S T U 6 5 j u z V W X   Y M E z E E Z `    .] 4 j z z V J ..+.@.",
"#.$.%.&.4 t i j E *.=.-.;.>.j j j j j ,.'.).!.h t j j E ~.{.].^.",
"/.(.n _.:.b A A h <., [.}.|.A 1.A h A 2.[., _.>.1.1.A h <.n (./.",
"] 3.:.| | _.s s M M :.>.M h | | | | | M M >.| 5 | | | | | :.3.6 ",
"4.z Z j j j j j j j j 5.E E u u z 5.z 5.u E 5.E E z 5.5.z j z 4.",
"6.d u u u E V u u u 7.8.9.}.0.0.}.0.0.}.0.9.8.0.}.}.9.8.7.u V 6.",
"a.b.}.<.0.0.0.0.}.8.0.z z E z z z z z z E z z z E z z Z c.8.d.a.",
"e.f.u E E E u E E E E E u z E E E E z u E u E E E E E E E E V e.",
"g.N Z z z z z z z E Z N z z z z z z z z N Z z z Z z z E z j N g.",
"h.i.j.k.l.l.m.l.l.k.j.j.n.o.l.l.l.l.l.n.j.p.k.l.l.l.l.l.k.j.i.q.",
"r.s.t.u.t o.c l.t v.w.x.i.o.m.o.m.l.4.y.z.A.u.l.o.l.l.t u.B.C.D.",
"  E.F.6 4 j z z E W G.H.[ 5 E z z E Z I.J.A.6 h j z z E W K.L.  ",
". M.F.D s j E E V g.w.N.[ :.8.}.}.O.7.n.z.P.D >.9.c.z V g.Q.R.  ",
". M.F.] 5 j z Z d 6.w.N.S.M c.E u V E I.H.P.] 5 z 7.}.b.T.U.V.  ",
"  W.F.] 5 j j c.b.g.w.N.S.M z j z 0.c.I.X.Y.] Z.j z V f.g.`.    ",
"  W.F.6 _.7.8.7.V W  +N.[ M <.}.}.d E I.X.Y.] | 2.}.7.b.T..+    ",
"  ++@+#+$+u d V d J %+&+~.y d d d D *+=+z.-+D >.E d d A W ;+>+  ",
"  ,+'+)+!+~+u.{+]+[ ^+/+(+_+:+:+u.<+<+[+}+x.|+!+~+u.u.]+1+x.2+  "};
