/* XPM */
static char *e02c236b9870444eed24e339d1438728p6ZdIfHMVwT0NuP7[] = {
/* columns rows colors chars-per-pixel */
"32 32 189 2 ",
"   c #422F19",
".  c #4A371D",
"X  c #4D391E",
"o  c #4D3B21",
"O  c #523E23",
"+  c #554125",
"@  c #594427",
"#  c #56452B",
"$  c #5B4629",
"%  c #564B37",
"&  c #614B30",
"*  c #6C5536",
"=  c #776033",
"-  c #7F6838",
";  c #7D7966",
":  c #6B6F7A",
">  c #747677",
",  c #757C75",
"<  c #74767A",
"1  c #76797A",
"2  c #7A7B7C",
"3  c #836A3B",
"4  c #826B44",
"5  c #8B6C46",
"6  c #8C6F48",
"7  c #916E49",
"8  c #8B7347",
"9  c #8E714A",
"0  c #94744B",
"q  c #99764D",
"w  c #9A794E",
"e  c #9C7D51",
"r  c #A37D52",
"t  c #75AB53",
"y  c #78AC55",
"u  c #7BAE58",
"i  c #75856E",
"p  c #7B9A6A",
"a  c #758471",
"s  c #7A8874",
"d  c #7FAF61",
"f  c #98874F",
"g  c #99894C",
"h  c #9B8253",
"j  c #9C9359",
"k  c #9B9D59",
"l  c #A2824F",
"z  c #A58355",
"x  c #A88557",
"c  c #A48956",
"v  c #A78C59",
"b  c #A98C5A",
"n  c #A6945A",
"m  c #A8965A",
"M  c #AD945D",
"N  c #A7995B",
"B  c #B0965E",
"V  c #B39B5F",
"C  c #85AD56",
"Z  c #89AD56",
"A  c #8BAF5B",
"S  c #95A459",
"D  c #99A259",
"F  c #97A859",
"G  c #8DB459",
"H  c #8DBD5D",
"J  c #92B25A",
"K  c #99B25D",
"L  c #84986E",
"P  c #919D6A",
"I  c #959D73",
"U  c #AD9D61",
"Y  c #B29761",
"T  c #B59B62",
"R  c #BA9E64",
"E  c #8DAA6C",
"W  c #93AF66",
"Q  c #8AB464",
"!  c #8BBD64",
"~  c #8CBC6C",
"^  c #97B662",
"/  c #9CBA62",
"(  c #9EB96E",
")  c #8DA17B",
"_  c #97A97D",
"`  c #8FB372",
"'  c #97BA76",
"]  c #9CB37C",
"[  c #B3A164",
"{  c #BDA266",
"}  c #BEA967",
"|  c #B6A26A",
" . c #BDA469",
".. c #A3BE68",
"X. c #A9BC6E",
"o. c #BEA274",
"O. c #B4A37C",
"+. c #A7B975",
"@. c #C2A467",
"#. c #C2AD64",
"$. c #C3A669",
"%. c #C4AB6B",
"&. c #CBAD6D",
"*. c #C6B46D",
"=. c #CEB16E",
"-. c #C8B96F",
";. c #D2B56E",
":. c #C3A577",
">. c #C4A678",
",. c #C7AB79",
"<. c #C9AC7C",
"1. c #CDB271",
"2. c #CBBB71",
"3. c #C8B37B",
"4. c #D2B572",
"5. c #D5BA74",
"6. c #D8BE75",
"7. c #D1B77B",
"8. c #D5BB78",
"9. c #DBBD7E",
"0. c #85C25D",
"q. c #86C25D",
"w. c #8DC25D",
"e. c #8CC45E",
"r. c #86C85B",
"t. c #88C95D",
"y. c #8BCB5F",
"u. c #8AC462",
"i. c #8BCB60",
"p. c #8BCC60",
"a. c #8DCD61",
"s. c #9CC465",
"d. c #95CC64",
"f. c #9ACA65",
"g. c #98C96A",
"h. c #8ED262",
"j. c #95DD64",
"k. c #96DE65",
"l. c #96DF66",
"z. c #97C171",
"x. c #9CC374",
"c. c #99D472",
"v. c #A1C465",
"b. c #ACC66B",
"n. c #A6CA69",
"m. c #B4C86D",
"M. c #ABC672",
"N. c #B5CA75",
"B. c #ADD679",
"V. c #98E068",
"C. c #CEC172",
"Z. c #C3C972",
"A. c #D3C575",
"S. c #DAC077",
"D. c #DBC177",
"F. c #D5C977",
"G. c #D5C67B",
"H. c #DAC178",
"J. c #DDC379",
"K. c #D9C978",
"L. c #818C80",
"P. c #9D9780",
"I. c #A19C81",
"U. c #9FBC83",
"Y. c #B4AF86",
"T. c #A8BA85",
"R. c #CEB280",
"E. c #D2B483",
"W. c #DFBE85",
"Q. c #B6CB87",
"!. c #B6DE89",
"~. c #B4E682",
"^. c #BAEA87",
"/. c #BAE091",
"(. c #DBD08D",
"). c #E5C48A",
"_. c #E2CB8B",
"`. c #EAC98E",
"'. c #EBCC8D",
"]. c #EED08F",
"[. c #EBCB97",
"{. c #F0CF95",
"}. c #EFD191",
"|. c #EDD599",
" X c #F2D392",
".X c #F8D894",
"XX c #C4FC8C",
"oX c #C8FF8F",
"OX c #CAFE91",
/* pixels */
"y l.y.y.p.y.p.p.a.y.H J G C M.N.G C E Q G Z G y.t.t.i.i.p.p.h.0.",
"y l.y.y.y.y.y.y.a.w.k x e 4 w c e 4 0 e 0 8 f J y.y.p.i.y.i.h.0.",
"y l.y.y.y.y.y.y.H k c q 5 0 x q 5 r r 9 0 R @.n X.~.p.y.t.y.h.0.",
"y l.y.y.y.y.y.w.k z w 5 q x q 6 q r 7 h $.6.9.1.T X.a.i.y.p.h.0.",
"y l.y.y.y.y.t.S x q 6 q z q 5 q r 7 0 R D.D.6.6.%.m G y.~.B.l.r.",
"y l.y.y.y.e.D c q 5 0 r w 5 e r q 0 R 4.4.1.4.4.4.@.n J ^.^.h.0.",
"y l.y.y.e.D v q 5 0 r w 5 q r 0 0 %.D.D.6.6.5.5.6.D.4.m N.~.h.0.",
"y l.y.e.S x w 5 0 x r 5 0 x 6 0 B 5.5.4.4.4.4.5.4.5.3.T U ..h.0.",
"y l.w.S z q 6 0 r q 0 0 r 0 e  .6.4.4.4.4.4.;.7.4.4.7.5.%.m K q.",
"y j.J c r 6 6 z r 5 0 z r 6 @.6.6.5.6.4.6.;.5.5.5.5.8.6.J.%.m q.",
"t l.K n b c v M v z v M M Y ;.5.;.5.5.5.5.5.7.=.4.;.1.=.4.=. .0.",
"y l.K { { @.@.{  .$. .R $.6.5.9.).`.`.`.`.`.[.).9.5.5.5.5.4.A.0.",
"y l./ } { { @.@.R $.{ { $.5.5.'.{.:.:.:.>.:.3.[.}.6.5.5.5.5.C.0.",
"t V.K m Y B B B Y Y M Y Y &.&.'.E.O . O @ X * <.'.;.%.=.&.&.*.0.",
"t l.( 3.,.$.$.$.$.$.$.$.&.6.D. XE.O O O O X * <..XJ.5.D.D.J.A.q.",
"u c.] | V R V R T T T T R 1.4.'.E.@ % # @ X * <. X5.=.5.1.1.2.q.",
"' /.( T T R T R R T T T R ;.;.'.E.O O # $ o * <.{.5.&.4.4.4.=.e.",
"M.OXv.} $.$.$.$.$.$.$.@.%.D.D.].E.O o @ $ O * <..XJ.6.6.J.J.A.e.",
"x.OX/ m B B M M Y Y Y M T &.&.`.E.@ . O $ o * <.{.=.&.&.&.&.*.H ",
"z.XX..{ { @.@. .R  .R  .$.5.5.].E.O o @ O o * R..XJ.;.6.5.5.C.0.",
"u l./ [ R R R R R R R T { ;.5.'.<..   o o   & >. X6.1.5.5.5.2.0.",
"t l./ U T Y Y M Y T R T T =.=.`.W.3 = 3 3 = q W..X;.=.E.7.1.*.0.",
"y l./  .$.%.#.#. . . . .#.6.A._.|.3.%.*.1.&.3.)._.J.(.(.F.H.C.q.",
"y l.K N / s.s.s.v./ ^ ^ b.K.m.B.Q.I.I.I.I.I I.I I.+.x.g.n.N.F.q.",
"t l.S f w.y.y.y.y.y.y.y.d.F.s.y.! ; : : : : : : L.U.a.i.i.n.A.0.",
"t l.F g ! a.~ u.y.y.y.y.f.A.f.y.G h i < < < > < 1 s d t.i.n.A.0.",
"x.oXF g ! ~ _ ~ y.y.y.p.f.A.v.y.G l A p 2 1 < < , < a d i.v.F.0.",
"x.OXF n ` ` ` u.y.y.y.y.f.G.v.y.G l H u.p , 1 1 1 1 2 a d ^ F.0.",
"y l.+.O.] ! a.y.y.y.y.y.f.H.s.y.G l G i.! p 1 1 1 1 1 > i P G.0.",
"t d.T.Y.z.r.y.y.y.y.y.y.d.Z.f.y.H j A y.t.u.) s s i a a a I Z.0.",
"p _ U.!.d.r.y.y.y.y.y.y.y.y.i.y.p.0.! u.y.y.i.i.y.i.i.i.u.i.d.0.",
"L ' !.^.h.q.i.y.p.p.p.p.p.p.p.p.p.p.i.t.y.y.y.y.y.y.p.y.y.i.h.t."
};
