/* XPM */
static char *_589497895f54236a5d3d4edbab4d50dKXBbR9AKsxssZMjV[] = {
/* columns rows colors chars-per-pixel */
"32 32 190 2 ",
"   c #2A372F",
".  c #25543E",
"X  c #285839",
"o  c #2A5A3E",
"O  c #395B3A",
"+  c #395C3B",
"@  c #2F663F",
"#  c #36633C",
"$  c #37673F",
"%  c #39673E",
"&  c #346B3E",
"*  c #386C3E",
"=  c #545A38",
"-  c #7E4A26",
";  c #7D572D",
":  c #41613E",
">  c #4C663A",
",  c #55633C",
"<  c #666B36",
"1  c #6C723F",
"2  c #73763C",
"3  c #1C5441",
"4  c #1B5A41",
"5  c #195843",
"6  c #265E41",
"7  c #2B5840",
"8  c #285E41",
"9  c #295F42",
"0  c #2A6242",
"q  c #2A6441",
"w  c #2B6543",
"e  c #2B6742",
"r  c #276946",
"t  c #266D45",
"y  c #276E47",
"u  c #2E6841",
"i  c #316041",
"p  c #366744",
"a  c #326841",
"s  c #326C42",
"d  c #326E42",
"f  c #306E45",
"g  c #2F7045",
"h  c #2E7E48",
"j  c #337340",
"k  c #307246",
"l  c #357345",
"z  c #3D7042",
"x  c #3D7644",
"c  c #367844",
"v  c #357A47",
"b  c #387B45",
"n  c #3C7845",
"m  c #387F46",
"M  c #467341",
"N  c #497247",
"B  c #477C45",
"V  c #4E7B44",
"C  c #4E7C46",
"Z  c #94642F",
"A  c #9C662E",
"S  c #836D34",
"D  c #936D31",
"F  c #AE682B",
"G  c #BF6825",
"H  c #B5732F",
"J  c #B87F30",
"K  c #FF7A1F",
"L  c #C06D2A",
"P  c #D57327",
"I  c #D87025",
"U  c #E16C23",
"Y  c #E67523",
"T  c #E07524",
"R  c #EC7223",
"E  c #ED7723",
"W  c #E37824",
"Q  c #E57B26",
"!  c #EF7B24",
"~  c #ED7B26",
"^  c #E47D28",
"/  c #FA7722",
"(  c #FE7721",
")  c #F57C23",
"_  c #F17824",
"`  c #F27924",
"'  c #F57F24",
"]  c #F97921",
"[  c #8A5F47",
"{  c #3A8145",
"}  c #3A8246",
"|  c #318148",
" . c #358849",
".. c #4A824B",
"X. c #51834A",
"o. c #538648",
"O. c #508B4B",
"+. c #588A4B",
"@. c #598F4C",
"#. c #439349",
"$. c #40904C",
"%. c #5A914D",
"&. c #5C944D",
"*. c #5D9E50",
"=. c #5F9C52",
"-. c #628747",
";. c #65894C",
":. c #738341",
">. c #728D4C",
",. c #759749",
"<. c #73994C",
"1. c #7BA44F",
"2. c #66A152",
"3. c #67A352",
"4. c #6AA653",
"5. c #6CAA55",
"6. c #6FB056",
"7. c #6FB257",
"8. c #6AB759",
"9. c #72B558",
"0. c #73B558",
"q. c #74B659",
"w. c #74B859",
"e. c #75BB5A",
"r. c #77BD5B",
"t. c #79BF5C",
"y. c #7BC05C",
"u. c #7BC25D",
"i. c #968A3F",
"p. c #B38A37",
"a. c #DE852C",
"s. c #DD8F31",
"d. c #C09B3C",
"f. c #C79C3C",
"g. c #EE8127",
"h. c #E6872F",
"j. c #EB8128",
"k. c #EA872C",
"l. c #F18227",
"z. c #F78326",
"x. c #FF8124",
"c. c #F08328",
"v. c #F3862B",
"b. c #F58629",
"n. c #F78A29",
"m. c #E9902F",
"M. c #F9902E",
"N. c #F2992E",
"B. c #E99331",
"V. c #EE9734",
"C. c #E09B35",
"Z. c #EA9B37",
"A. c #F09334",
"S. c #ECA837",
"D. c #EEAC3A",
"F. c #F2A231",
"G. c #F2A735",
"H. c #F2A637",
"J. c #F4A938",
"K. c #F4AB3A",
"L. c #F2AE38",
"P. c #FBB137",
"I. c #F4B03A",
"U. c #F2B23E",
"Y. c #FAB73C",
"T. c #FFBF3B",
"R. c #A59548",
"E. c #BB9D42",
"W. c #9DA244",
"Q. c #A0A344",
"!. c #EF9E45",
"~. c #DEBA4A",
"^. c #F6BB42",
"/. c #80CB60",
"(. c #81CD60",
"). c #82CD60",
"_. c #82CF61",
"`. c #83CF61",
"'. c #83D061",
"]. c #83D062",
"[. c #84D162",
"{. c #85D362",
"}. c #86D463",
"|. c #86D563",
" X c #F9C143",
".X c #FEC240",
"XX c #FFC641",
"oX c #FEC346",
"OX c #F5C64A",
"+X c #EDCB54",
/* pixels */
"|.|.|.|.|.|.|.|.|.|.|.|.|.|.|.|.|.|.|.|.|.|.|.|.|.|.|.|.|.|.|.|.",
"|.|.|.|.|.|.|.|.|.|.|.|.|.|.|.|.|.|.|.|.|.|.|.|.|.|.|.|.|.|.|.|.",
"|.|.|.|.|.|.|.|.|.|.|.|.|.|.|.|.|.|.|.|.|.|.|.|.|.|.|.|.|.|.|.|.",
"|.|.|.|.|.|.|.|.|.|.|.|.|.|.|.|.|.|.|.|.|.|.|.|.|.|.|.|.|.|.|.|.",
"|.|.|.|.|.|.|.|.|.|.|.|.|.|.|.}.|.|.|.|.|.|.|.|.|.|.|.|.|.|.|.|.",
"|.|.|.|.|.|.|.|.|.|.|.|.|.|.|.}.|.|.|.|.|.|.|.|.|.|.|.|.|.|.|.|.",
"|.|.|.|.|.|.|.|.|.|.|.|.|.|.}.}.|.|.|.|.|.|.|.|.|.|.|.|.|.|.|.|.",
"|.|.|.|.|.|.|.|.|.|.|.|.|.|.}.}.|.|.|.|.|.|.|.|.|.|.|.|.|.|.|.|.",
"|.|.|.|.|.|.{.{.].]._.{.|.{.7.o.'.|.|.(.u.,.>.;.|.|.|.|.|.|.|.|.",
"|.|.|.|.|.|.{.{.|.].|.|.}.}.V z '.|.u.< E.OX!.[ ].|.|.|.|.|.|.|.",
"|.|.|.|.|.|.{.|.{.{.|.{.{.`.o z |.'.<.~.T.OXT.R.|.|.|.|.|.|.|.|.",
"|.|.|.|.|.|.|.|.|.{.|.{.}.5.0 z y.1 D.^.oXF.n.J ].|.|.|.|.|.|.|.",
"|.|.|.|.|.|.7.*.e.|.|.].|.X.0 x :.+X XL.Y.V.C.:._.|.|.|.|.|.|.|.",
"|.|.|.|.|.|.&.j s $ 7.|.|...4 N ~.I.U.D.B.! p.|.|.|.|.|.|.|.|.|.",
"|.|.|.|.|.|.|.3.n g & V e.. % d.XXP.K.j.M.z.1.|.].|.|.|.|.|.|.|.",
"|.|.|.|.|.|.|.|.B 0 $.B p i f.L.J.G.Z.T z.U y.|.].|.|.|.|.|.|.|.",
"|.|.|.|.|.|.|.|.4.o v c > E..XN.b.c.A.^ z.2 ].|.].|.}.|.|.|.|.|.",
"|.|.|.|.|.|.|.|.9.a 0 | W.U.G.s.W R h.^ G -.|.]._.{.}.}.|.|.|.|.",
"|.|.|.|.|.|.|.]._.+ c  .W.J.k.h.V.m.K / - |.|.|._.}.}.}.|.|.|.|.",
"|.|.|.|.|.|.|.]./.+ c h i.v.k.Q g.~ a.;   V y.|.|.{.}.}.|.|.|.|.",
"|.|.|.|.|.|.|.|.q.a 0 t D z.c.! ) x.G 5 r } % + y.|.|.|.|.|.|.|.",
"|.|.|.|.|.|.|.|.9.u u y S ` ` Y g.I < 6 w m #.} 3.|.|.|.|.|.|.|.",
"|.|.|.|.|.|.|.|.0.u w g 7 F / ` T : 6 8 s % &.* 8.|.|.|.|.|.|.|.",
"|.|.|.|.|.|.|.|.q.X 0 u 5 A ( P , 3 o O M 3.|.u._.|.|.|.|.|.|.|.",
"|.|.|.|.|.|.|.|.|.7.l w r Z H = s +.e.|.|.|._.|.|.|.|.|.|.|.|.|.",
"|.|.|.|.|.|.|.|.].|.O.g s % *.9.|.|.|.|.|._.}.|.|.|.|.|.|.|.|.|.",
"|.|.|.|.|.|.|.|.|.|.e.&.@.%.{.}.|.{.|.|.|.|.|.|._.|.|.|.|.|.|.|.",
"|.|.|.|.|.|.|.|.}.}.}.|.}.}.}.}.}.}.|.|.|.|.|.|.|.|.|.|.|.|.|.|.",
"|.|.|.|.|.|.|.|.|.|.|.|.|.|.|.|.}.}.}.}.|.|.|.|.|.|.|.|.|.|.|.|.",
"|.|.|.|.|.|.|.|.|.|.|.|.|.|.|.|.}.}.|.}.|.|.|.|.|.|.|.|.|.|.|.|.",
"|.|.|.|.|.|.|.|.|.|.|.|.|.|.|.|.|.|.|.|.|.|.|.|.|.|.|.|.|.|.|.|.",
"|.|.|.|.|.|.|.|.|.|.|.|.|.|.|.|.|.|.|.|.|.|.|.|.|.|.|.|.|.|.|.|."
};
