/* XPM */
static char *result[] = {
/* columns rows colors chars-per-pixel */
"32 32 164 2 ",
"   c #452C24",
".  c #1D493B",
"X  c #294734",
"o  c #364D39",
"O  c #26543E",
"+  c #2A543A",
"@  c #2C5A3C",
"#  c #37563D",
"$  c #32593D",
"%  c #3D5B3C",
"&  c #2F673D",
"*  c #34613C",
"=  c #3E653E",
"-  c #3A6D3F",
";  c #525B38",
":  c #4A633D",
">  c #55633A",
",  c #4C703D",
"<  c #5A703D",
"1  c #7E6431",
"2  c #637039",
"3  c #1D5A44",
"4  c #245B42",
"5  c #285E42",
"6  c #2B6443",
"7  c #2E6B43",
"8  c #346141",
"9  c #326D42",
"0  c #3C6D44",
"q  c #2B7346",
"w  c #2C7846",
"e  c #347344",
"r  c #3D7242",
"t  c #377B46",
"y  c #397C46",
"u  c #337D48",
"i  c #416640",
"p  c #456A41",
"a  c #427443",
"s  c #4D7643",
"d  c #587544",
"f  c #537B44",
"g  c #6A6746",
"h  c #697544",
"j  c #994C22",
"k  c #BB5E22",
"l  c #8E642E",
"z  c #94692F",
"x  c #846332",
"c  c #896235",
"v  c #956A31",
"b  c #837236",
"n  c #C66A24",
"m  c #D06B27",
"M  c #DE7426",
"N  c #DF7925",
"B  c #DE7E2B",
"V  c #E96D22",
"C  c #E47425",
"Z  c #EC7423",
"A  c #E37925",
"S  c #EA7C25",
"D  c #E77E28",
"F  c #EE7D28",
"G  c #F37422",
"H  c #F37C25",
"J  c #FF7C23",
"K  c #CC7B4E",
"L  c #3B8446",
"P  c #358549",
"I  c #3F8B49",
"U  c #418F47",
"Y  c #428C49",
"T  c #5B8649",
"R  c #5B8B4A",
"E  c #5C934C",
"W  c #60894A",
"Q  c #718C47",
"!  c #66964A",
"~  c #65954D",
"^  c #69974C",
"/  c #6A9B4D",
"(  c #769C4E",
")  c #658155",
"_  c #669D50",
"`  c #6C9E51",
"'  c #72A552",
"]  c #75AA53",
"[  c #78AC55",
"{  c #7AB357",
"}  c #76BA5A",
"|  c #8C843E",
" . c #9A873B",
".. c #A68C3D",
"X. c #B18737",
"o. c #BF8B33",
"O. c #DC852D",
"+. c #D08533",
"@. c #DA9133",
"#. c #E5832C",
"$. c #F18327",
"%. c #FB8325",
"&. c #FF8927",
"*. c #F78828",
"=. c #FB8B29",
"-. c #EC902E",
";. c #FB902E",
":. c #E68F31",
">. c #EA8E32",
",. c #E49332",
"<. c #EA9532",
"1. c #EB9F36",
"2. c #F79932",
"3. c #DCAB3E",
"4. c #E9A73D",
"5. c #EEAD3A",
"6. c #F3A534",
"7. c #FDAB36",
"8. c #F2AC38",
"9. c #EEB33D",
"0. c #F4B23A",
"q. c #FEB73B",
"w. c #FEBB3D",
"e. c #838D44",
"r. c #9E9453",
"t. c #82AF54",
"y. c #93A15E",
"u. c #83BD5A",
"i. c #839A60",
"p. c #8BAF68",
"a. c #E29D47",
"s. c #C2A846",
"d. c #DAB248",
"f. c #ECB643",
"g. c #FCBC42",
"h. c #81C657",
"j. c #86C35C",
"k. c #88C75E",
"l. c #86C95C",
"z. c #8ACB5F",
"x. c #8CCD61",
"c. c #8ED161",
"v. c #8FDA60",
"b. c #93D066",
"n. c #95DE65",
"m. c #96D269",
"M. c #9AD46B",
"N. c #9BC372",
"B. c #A9DB7A",
"V. c #98E068",
"C. c #AEE27C",
"Z. c #B1E47F",
"A. c #FFC640",
"S. c #FFC748",
"D. c #FECA49",
"F. c #FFD24D",
"G. c #F6DA59",
"H. c #FFE159",
"J. c #B3E682",
"K. c #B7E884",
"L. c #BBEB88",
"P. c #C0EE8B",
"I. c #C4FC8C",
"U. c #CAFF91",
/* pixels */
"[ n.x.x.z.x.x.x.x.x.x.x.z.z.K.L.x.h.z.z.x.x.x.z.z.z.x.z.x.x.c.l.",
"[ n.z.z.z.z.z.z.z.z.z.z.z.z.C.K.b.z.x.z.z.z.z.z.x.z.z.z.z.z.x.j.",
"[ n.x.x.x.z.z.z.z.z.z.z.z.z.z.x.Z.K.c.z.z.z.z.x.J.Z.x.l.z.z.c.l.",
"[ n.z.z.z.z.z.z.z.z.x.z.z.z.l.l.K.L.x.l.z.z.z.x.L.L.x.z.x.x.x.j.",
"[ n.z.z.z.z.z.l.z.x.z.z.z.z.l.z.K.L.b.l.x.z.k.x.K.L.z.x.J.Z.c.j.",
"[ n.z.z.z.z.x.x.l.j.k.k.z.l./ R B.J.x.l.z.z.( ( i.p.z.x.L.L.c.j.",
"[ n.z.z.z.k.B.J.x.z.x.z.z.z.T & x.x.k.j.2 e.3.4.K g l.x.L.K.c.j.",
"[ n.z.z.k.k.J.m.l.z.z.z.z.' $ - l.l.x.d o.A.G.S.a.h l.x.J.Z.x.h.",
"[ n.x.z.x.l.J.M.l.x.z.k.z.` 6 0 z.z.W 3.g.w.8.7.g.e.z.x.x.z.c.l.",
"[ n.z.z.l.x.C.J.x.l.z.k.x.i 6 0 j.f +.7.f.D.6.-.&.b x.z.z.z.x.j.",
"[ n.x.z.{ E _ b.x.x.x.l.x.O 7 r Q d.H.8.0.w.:.7.X.Q z.z.x.z.c.j.",
"[ n.z.x.~ & L * p l.x.k.u.6 3 0 s.9.f.8.9.<.C *.t.z.z.z.z.z.c.j.",
"[ n.x.z.z.f a 7 9 = ~ z.T 4 O | F.8.q.1.<.2.S +.u.z.x.z.z.z.b.j.",
"[ n.z.z.z.x.[ L 6 I $ ` 4 * ..5.w.0.w.:.Z =.J r.z.k.x.x.z.z.c.j.",
"[ n.z.x.z.z.p.0 4 I Y p 3 b g.5.2.:.2.O.A H m y.x.k.k.z.z.z.c.j.",
"[ n.z.z.z.k.Z.) 7 9 P ,  .S.w.-.=.S 2.:.D &.c J.z.k.z.z.z.z.c.j.",
"N.I.b.l.z.z.x.s t 4 u ^ 4.4.5.@.N V F O.A n ; z.z.j.k.z.z.z.b.j.",
"N.U.m.h.z.z.l.! $ e P ! 3.6.B O.>.,.S G J j u.l.z.z.j.z.z.z.c.j.",
"N.U.m.l.z.j.k.u.o Y P / 4.=.<.#.;.-.*.S k   ~ j.z.z.k.z.z.z.c.j.",
"N.I.b.l.z.k.z.f & & w > M F C G G A $.x O . 6 , W [ z.z.z.z.c.j.",
"[ V.z.z.z.z.z.f e 5 q < D =.$.S =.G %.1 3 t L y e X ] z.z.z.b.j.",
"] n.z.x.z.z.z.s e 5 q : m G Z C D C l $ & O e U U y ] z.z.z.c.j.",
"[ n.z.z.z.x.x.s t 5 e 6 ; G Z S J x O 3 6 e @ R f - } z.z.z.c.j.",
"[ n.z.z.z.z.z.p e 4 e 4 5 Z J S z 3 6 @ X + % c.c.{ k.z.z.z.c.j.",
"] n.z.x.z.z.x./ s 7 4 7 # C G x 4 . f f l.z.h.z.J.J.x.x.x.z.c.j.",
"[ V.x.z.z.z.x.z.j.y 6 u % v p % ' ' x.x.x.z.j.x.J.J.x.l.x.z.x.j.",
"N.U.b.h.x.x.z.j.x.R e 6 9 8 x.x.x.z.z.z.k.x.Z.J.x.x.x.l.z.x.c.j.",
"N.I.m.l.l.k.z.l.x.{ ~ ^ ` ' k.k.k.z.z.x.l.x.K.K.x.h.x.x.z.x.x.j.",
"[ n.C.K.b.l.x.x.z.x.z.z.z.z.z.z.x.z.z.x.l.c.K.L.x.l.x.z.z.x.b.j.",
"] v.C.P.b.l.x.k.z.z.z.z.z.x.z.z.z.z.z.z.z.z.Z.J.x.z.x.z.z.z.c.j.",
"[ n.C.L.b.l.z.z.z.z.z.z.z.z.z.z.z.z.z.z.z.z.x.c.z.z.x.z.z.z.c.j.",
"] n.Z.L.b.j.x.x.z.x.x.x.x.x.x.z.x.x.x.x.z.z.z.z.z.x.x.z.x.z.c.j."
};
