/* XPM */
static char *d0ffaf3c75184f2cce50ba1844f6dd9dSYcC55pJHnBrqdoX[] = {
/* columns rows colors chars-per-pixel */
"32 32 167 2 ",
"   c #1B0003",
".  c #1F0805",
"X  c #1B070C",
"o  c #1F0809",
"O  c #17161F",
"+  c #1C131B",
"@  c #210605",
"#  c #2A0102",
"$  c #230906",
"%  c #2B0E03",
"&  c #220709",
"*  c #230A0A",
"=  c #320D01",
"-  c #2D170A",
";  c #2F1808",
":  c #391603",
">  c #3C1900",
",  c #30100C",
"<  c #3B1308",
"1  c #3E1C0C",
"2  c #241B1B",
"3  c #2A1E1B",
"4  c #3E2500",
"5  c #3D2900",
"6  c #35230B",
"7  c #2C211B",
"8  c #3C2516",
"9  c #3C2818",
"0  c #3B341D",
"q  c #122824",
"w  c #1B272C",
"e  c #0B2436",
"r  c #183439",
"t  c #242426",
"y  c #262825",
"u  c #202C30",
"i  c #253530",
"p  c #2C3C31",
"a  c #420F06",
"s  c #451B00",
"d  c #581C00",
"f  c #422601",
"g  c #432900",
"h  c #492C00",
"j  c #482409",
"k  c #532B00",
"l  c #532C0B",
"z  c #4E3300",
"x  c #543500",
"c  c #5B3500",
"v  c #5D3A01",
"b  c #442312",
"n  c #482612",
"m  c #4A2A13",
"M  c #4C3116",
"N  c #4F3B1A",
"B  c #523117",
"V  c #6E2F00",
"C  c #732D00",
"Z  c #792E00",
"A  c #613400",
"S  c #6C3104",
"D  c #633D01",
"F  c #733402",
"G  c #793903",
"H  c #733D0A",
"J  c #3D4A2D",
"K  c #24403D",
"L  c #304033",
"P  c #3D4D32",
"I  c #334639",
"U  c #374D3A",
"Y  c #3B4C3B",
"T  c #3C5237",
"R  c #3E543B",
"E  c #54431D",
"W  c #634106",
"Q  c #6C4303",
"!  c #63420A",
"~  c #6B450A",
"^  c #6E490B",
"/  c #724601",
"(  c #744A04",
")  c #7B4D02",
"_  c #784008",
"`  c #724D0F",
"'  c #7A4E0C",
"]  c #77500E",
"[  c #7D530C",
"{  c #664213",
"}  c #6C4B12",
"|  c #744E11",
" . c #755112",
".. c #424B2F",
"X. c #49512F",
"o. c #415539",
"O. c #455A3B",
"+. c #485F3E",
"@. c #545832",
"#. c #47633F",
"$. c #6A7B3D",
"%. c #3C6A4D",
"&. c #485D40",
"*. c #466340",
"=. c #4E6B41",
"-. c #556E44",
";. c #49744F",
":. c #537145",
">. c #587144",
",. c #5C7748",
"<. c #557D4F",
"1. c #617F49",
"2. c #8D4300",
"3. c #854F02",
"4. c #934500",
"5. c #875202",
"6. c #8B5401",
"7. c #80560C",
"8. c #925600",
"9. c #955901",
"0. c #9C5D02",
"q. c #A25E01",
"w. c #9C6000",
"e. c #9E6308",
"r. c #A46202",
"t. c #AB6401",
"y. c #AE6A00",
"u. c #A3650C",
"i. c #B56700",
"p. c #B46C04",
"a. c #BB6F00",
"s. c #5D9155",
"d. c #6A8D4E",
"f. c #6C924E",
"g. c #609656",
"h. c #619857",
"j. c #6F9E54",
"k. c #649B59",
"l. c #749C52",
"z. c #68A05B",
"x. c #75A256",
"c. c #88B659",
"v. c #8BBC5D",
"b. c #87BD61",
"n. c #89BE61",
"m. c #95C45E",
"M. c #8EC263",
"N. c #93C664",
"B. c #92CC65",
"V. c #9FD566",
"C. c #A0D564",
"Z. c #A6DA65",
"A. c #A3DB6A",
"S. c #ACE369",
"D. c #B1EC6C",
"F. c #B5F16C",
"G. c #BEFE73",
"H. c #3DD0D6",
"J. c #2BE3E8",
"K. c #40D2D6",
"L. c #42D4D6",
"P. c #44D7D7",
"I. c #45D8D7",
"U. c #42D6D8",
"Y. c #45D8D8",
"T. c #47DBD8",
"R. c #49DBD9",
/* pixels */
"L.L.L.L.L.J.J.L.L.L.L.L.L.L.L.L.L.L.L.L.L.L.L.L.L.J.J.L.L.L.L.L.",
"L.L.L.L.L.L.L.L.L.L.L.L.L.L.L.L.L.L.L.L.L.L.L.L.J.L.L.L.L.L.L.L.",
"L.L.L.L.L.L.L.L.L.L.L.L.L.L.L.L.L.L.L.L.L.L.L.J.J.J.J.L.L.L.L.L.",
"L.L.L.L.L.L.L.L.L.L.L.L.L.L.L.L.L.L.J.J.J.J.J.L.L.L.L.L.L.L.L.L.",
"L.L.L.L.L.L.L.L.L.L.L.L.L.L.L.L.L.L.L.L.L.L.L.L.L.L.L.L.L.L.J.J.",
"L.L.L.L.L.L.J.J.L.L.L.L.L.L.L.L.L.L.L.L.L.L.L.L.L.L.L.L.L.L.J.L.",
"L.L.L.L.L.L.L.J.L.L.L.L.L.L.L.L.L.L.L.L.L.L.L.L.L.L.L.L.L.L.J.L.",
"L.L.L.L.L.I.Y.L.L.L.L.L.L.L.L.I.I.L.L.L.L.L.L.L.L.Y.P.L.J.L.J.L.",
"L.L.L.L.I.f.q f.R.P.L.L.K.I.K.p L I.I.L.L.L.L.I.d.q l.R.L.L.L.L.",
"L.L.L.Y.h.m 4.n s.R.L.L.I.K.P Z F P L.J.L.L.Y.s.n 4.n k.R.L.L.L.",
"L.U.R.k.8 2.0.2.b h.T.P.I.J F 8.9.S P L.I.Y.s.b 4.0.2.8 z.R.L.L.",
"L.U.f.m 2.) 5 ( 4.B x.L.X.S 6.z x 8.F @.L.x.n 2.( 5 ) 4.B f.L.L.",
"L.Y.w Z w.h W z 6.d R H., i.v v v v 5.* H.U G w.h D z 6.d i Y.L.",
"L.Y.I S 9.x v W W % >.H.9 q.D v D D k 2 H.#.F 8.x D v D % o.Y.L.",
"Y.R.R S 9.x W v Q = d.H.8 q.D v D D c 3 I.:.F 8.x v v Q % #.R.R.",
"l.<.e H 8.h z x D ; r %.7 r.x x x x x O ;.r _ 6.h x x D - r <.x.",
"M a B u.t.) 5.5.6.' m b | p.5.3.5.6.5.{ b m u.r.3.3.5.6.' B a M ",
"F a.t.0.0.u.w.w.q.q.t.r.q.6.0.0.0.0.0.q.q.r.0.9.0.0.0.0.0.t.a.S ",
"> v c x x x x x x x x ! D D W W v ! v ! W D ! D D v ! ! v x v > ",
"j ( W W W D Q W W W ^  .} | ` ` | ` ` | ` }  .` | | }  .^ W Q j ",
"l [ | ' ` ` ` ` |  .` v v D v v v v v v D v v v D v v c ~  .7.l ",
"s / W D D D W D D D D D W v D D D D v W D W D D D D D D D D Q s ",
": k c v v v v v v D c k v v v v v v v v k c v v c v v D v x k : ",
"..+ t 6 g g f g g 6 t t 7 4 g g g g g 7 t y 6 g g g g g 6 t + X.",
"V.A.Y $ h 4 5 g h @ -.v.+ 4 f 4 f g > 2 M.=.$ g 4 g g h $ R A.V.",
"S.G.I S 8.x v v D = ,.B.8 9.D v v D c 3 V.=.S 6.x v v D = O.G.S.",
"Z.D.I G w.x D D Q : -.n.8 t. .| | ] ^ 7 M.*.G r.} ~ v Q : o.D.Z.",
"Z.D.I F 9.x v c ( j -.n.9 q.~ D W Q D 3 B.*.F 9.v ^ | [ 1 R F.Z.",
"Z.D.I F 9.x x ~ [ : -.n.9 q.v x v ` ~ 3 N.#.F e.x v Q / : o.D.Z.",
"Z.D.I S u.^  .^ Q = >.n.8 q.' | | ( D 3 N.#.F 0.{ | ^ [ 1 T D.Z.",
"Z.D.u C y.W ( Q ( % &.b.- i.( ( ( G A X M.U G r.D ( ( 5.= p F.Z.",
"Z.S.c.E # o $ *   8 m.A.$.< . . $ & & 1.S.v.N # o $ $   0 v.S.Z."
};
