/* XPM */
static char *_aac362d7cc645a4c18f1f0b069ecfdemwQv52vIMg9xaYoF[] = {
/* columns rows colors chars-per-pixel */
"32 32 4 1 ",
"  c None",
". c black",
"X c #874E33",
"o c #72CE49",
/* pixels */
"                                ",
"                                ",
"                                ",
"                                ",
"                                ",
"                                ",
"                                ",
"                                ",
"          ...             ...   ",
"         ..X..           ..X..  ",
"        ..XXX..         ..XXX.. ",
"       ..XXXXX..       ..XXXXX..",
"       .XXXXXXX.       .XXXXXXX.",
"       .XXXXXXX.       .XXXXXXX.",
"       .XXXXXXX.       .XXXXXXX.",
"       .XXXXXXX.       .XXXXXXX.",
"       .XXXXXXX.       .XXXXXXX.",
"........XXXXXXX.........XXXXXXX.",
"XXXXXXX.XXXXXXX.XXXXXXX.XXXXXXX.",
"XXXXXXX.XXXXXXX.XXXXXXX.XXXXXXX.",
"XXXXXXX.XXXXXXX.XXXXXXX.XXXXXXX.",
"........XXXXXXX.........XXXXXXX.",
"       .XXXXXXX.       .XXXXXXX.",
"       .XXXXXXX.       .XXXXXXX.",
"........XXXXXXX.........XXXXXXX.",
"XXXXXXX.XXXXXXX.XXXXXXX.XXXXXXX.",
"XXXXXXX.XXXXXXX.XXXXXXX.XXXXXXX.",
"XXXXXXX.XXXXXXX.XXXXXXX.XXXXXXX.",
"........XXXXXXX.........XXXXXXX.",
"  o o  .XXXXXXX.  o o  .XXXXXXX.",
" oooooo.XXXXXXX.ooooo o.XXXXXXX.",
"ooooooo.........ooooooo........."
};
