/* XPM */
static char *_35d8ca5537046ebc23d11852cdc3eb283xzIKRs5ACbvbHU[] = {
/* columns rows colors chars-per-pixel */
"32 32 147 2 ",
"   c #101223",
".  c #161825",
"X  c #251B26",
"o  c #142D27",
"O  c #182429",
"+  c #162C29",
"@  c #1B2D2B",
"#  c #1E372E",
"$  c #1E3531",
"%  c #22322D",
"&  c #293B2E",
"*  c #3D3E2E",
"=  c #223F35",
"-  c #4E2D22",
";  c #512C23",
":  c #523D28",
">  c #264C34",
",  c #2A4A34",
"<  c #294836",
"1  c #264739",
"2  c #234B39",
"3  c #265437",
"4  c #295035",
"5  c #275936",
"6  c #25533D",
"7  c #2B5038",
"8  c #255A3E",
"9  c #2A5A3C",
"0  c #37533A",
"q  c #3E573B",
"w  c #3D5B3B",
"e  c #2C643E",
"r  c #32653F",
"t  c #326B3E",
"y  c #41563A",
"u  c #5F5E36",
"i  c #654924",
"p  c #635E36",
"a  c #6D6439",
"s  c #737138",
"d  c #265741",
"f  c #265C42",
"g  c #295C42",
"h  c #2C6442",
"j  c #3D6743",
"k  c #336C42",
"l  c #337546",
"z  c #377E45",
"x  c #397E46",
"c  c #397F49",
"v  c #466140",
"b  c #864925",
"n  c #895226",
"m  c #A95823",
"M  c #BD5D23",
"N  c #96652E",
"B  c #997231",
"V  c #AF6C28",
"C  c #BC6726",
"Z  c #B6732F",
"A  c #DC711F",
"S  c #F4761F",
"D  c #C46F2B",
"F  c #D06521",
"G  c #DB6E25",
"H  c #CF7127",
"J  c #DB7325",
"K  c #DC7C27",
"L  c #DC762A",
"P  c #DC7D2A",
"I  c #E76F21",
"U  c #E37323",
"Y  c #EB7323",
"T  c #E57E26",
"R  c #E37D29",
"E  c #F77622",
"W  c #F87622",
"Q  c #F57823",
"!  c #8C5747",
"~  c #996244",
"^  c #B96E4E",
"/  c #B66F51",
"(  c #C47D49",
")  c #CB7E48",
"_  c #378345",
"`  c #3C8345",
"'  c #3E8A46",
"]  c #3E8949",
"[  c #418846",
"{  c #418748",
"}  c #408849",
"|  c #6AA653",
" . c #6EAD55",
".. c #71B357",
"X. c #73B558",
"o. c #76BB5B",
"O. c #79BE5B",
"+. c #7CC45D",
"@. c #7FC95F",
"#. c #BF8730",
"$. c #DE8029",
"%. c #CF9033",
"&. c #C79B38",
"*. c #C9983C",
"=. c #D79034",
"-. c #DC9536",
";. c #E8812A",
":. c #FC952C",
">. c #E39335",
",. c #E49C36",
"<. c #E89B32",
"1. c #E7963A",
"2. c #FE9F31",
"3. c #CFA539",
"4. c #DFA335",
"5. c #DEA93B",
"6. c #FCA02F",
"7. c #E2A236",
"8. c #EBA536",
"9. c #E3A43A",
"0. c #E9A63A",
"q. c #E4A83B",
"w. c #F4A733",
"e. c #FCA231",
"r. c #FEAE34",
"t. c #FFAE38",
"y. c #FDB134",
"u. c #A48640",
"i. c #B6A545",
"p. c #CFA541",
"a. c #CEB14E",
"s. c #D6B045",
"d. c #C3B252",
"f. c #E3AE42",
"g. c #E1B041",
"h. c #80CB5F",
"j. c #82CE61",
"k. c #85D463",
"l. c #CBC553",
"z. c #FCC14B",
"x. c #FDCD4D",
"c. c #FBCB51",
"v. c #FED955",
"b. c #FFD959",
"n. c #FDE15A",
"m. c #FFE262",
"M. c #FEE861",
/* pixels */
"k.k.k.k.k.j.+.j.k.k.k.k.k.+. .| o.h.k.k.k.k.j.@.k.@.@.@.X...k.k.",
"k.j.k.j.j.k.k.k.k.k.k.k.k.k.t k j.k.k.k.k.k.@.@.+.#.r./ ^ ! +.k.",
"k.k.k.k.k.k.k.k.k.k.k.k.k.j.k t k.k.k.j.k.@.i %.a.s.q.=.( ! o.k.",
"k.k.k.k.h.k.k.k.k.k.k.k.k.@ k t k.+.k.k.@.* B y.x.n.b.y.) ~ +.k.",
"k.k.k.k.k.k.k.k.k.k.@.k.h.f h t h.k.k.k.k.d.f.r.y.5.v.r.v.d.+.k.",
"k.k.k.k.k.k.k.k.k.k.k.k.+.e h t j.k.j.: r.y.8.b.y.r.2.Q e.%.+.k.",
"k.k.k.k.k.k.k.k.k.k.k.k.w f h k O.+.a u.4.w.4.M.t.8.<.J ;.C o.k.",
"@.@.k.k.k.k.k.k.k.@.k.k.$ f h t k.: a.m.v.q.7.b.y.9.z.w.Q M +.k.",
"k ' ] ..j.k.k.k.k.k.k.k.f f h k j.y.5.b.y.r.r.r.y.J W r.O.h.k.j.",
"# e ' 6 2 k +.k.k.j.k.o.f 8 f j d.g.q.0.g.8.8.f.U J R J k.k.k.k.",
"+.o ] f f _ + j.j.j.k.{ f 8 h v b.b.0.r.b.<.>.c.Q T :.R k.k.k.k.",
"k.k.X._ h f ] 4 . j.k.% f f s r.r.r.r.r.r.A E E e.J S k.k.k.k.k.",
"k.k.k.] h f ] ] } X.f f f *.p.g.r.x.8.r.b.P J e.W W W k.k.j.k.k.",
"k.k.@.t 9 f ] ] }  .f g v 4.5.q.r.>.>.r.-.L J R W F D k.k.k.k.j.",
"k.k.k.+.= f z ` } % g v r.v.8.e.2.W T :.W ;.T W W b j.k.k.k.k.k.",
"k.k.k.@.7 z g h ] } 3.7.b.r.r.$.E 2.G S M.U G r.W n k.k.k.k.k.k.",
"k.k.k.j.7 x f h ] ' i.5.8.y.q.-.K U Y S J P L A m ; h.k.k.h.h.h.",
"k.k.k.@., t g k ] ] i.q.,.P -.-.K R J U S J U W - k.k.h.k.k.k.h.",
"k.k.k.k...% } ] ] ] 3.7.c.Q P K W c.,.6.S W E E - k.k.k.k.k.k.h.",
"k.+.k.k. .% ] } ] ] l.1.E 6.0.>.Q e.U E 2.U F - X X.+.h.k.k.k.k.",
"k.j.k.j., k 3 k _ 8 Z L T G L U W U J T J p 0 2 2 9 k O.k.k.k.k.",
"k.k.k.k.7 c g h x 8 D U :.E W E E E T :.E q f f 8 k ' % @ & +.k.",
"k.k.k.k.> c f h c f &.L E r.G J r.E Q W W q d [ ] ' ' ' } t   k.",
"k.k.k.j.> z f h z f V Y E G E Y A ;.U H q w f 8 f k ' } [ ` k k.",
"k.k.k.j.2 c g h c g u N E Q U I Q R N u f d g d 8 g t t t z ' k.",
"k.k.k.k.> z d e _ f f q Q E R P Q E q f f f 8 [ ] > k.+.+.> { k.",
"k.k.k.k.1 _ f e z g f y W W W W E d d f _ 2 + + o O k.k.k.@.h.k.",
"k.k.k.k.+ 5 h 8 g h f w W W E N w f 2 1 4 @ h.k.k.k.k.k.k.k.k.k.",
"k.k.k.k.k.@.] d f [ f y Y D D p g g 1 @.k.k.k.k.k.k.k.k.k.j.k.k.",
"k.k.k.k.k.k.] f f ] f y D g f 2 O.@.k.k.k.k.k.k.k.+.k.k.j.k.k.k.",
"k.k.k.+.k.k.k.k l f l h f k.k.k.k.j.k.k.k.k.k.k.k.k.k.k.k.k.k.k.",
"k.k.k.k.@.k.k.3 e 1 r 8 d @.k.k.k.k.k.k.k.k.k.k.k.k.k.k.k.k.k.k."
};
