/* XPM */
static char * gr64_xpm[] = {
"64 64 15 1",
" 	c #72CE49",
".	c #71CE48",
"+	c #81D556",
"@	c #98E268",
"#	c #A3E971",
"$	c #81D656",
"%	c #98E369",
"&	c #A4EA72",
"*	c #81D555",
"=	c #71CD48",
"-	c #7DD453",
";	c #8FDD61",
">	c #93DF64",
",	c #88D95B",
"'	c #76D04D",
"                         . +@##@+ .                             ",
"                         . $%&&%*.=              ..             ",
"                         . +@##@+ .                             ",
"                           -;%%>,$*-'          '-$$-'           ",
"                           '-*$,>%%;-          -;%%;-           ",
"                             . +@##@+ .      . +@##@+ .  ..     ",
"                             =.*%&&%$ .      . $%&&%$ .         ",
"                             . +@##@+ .      . +@##@+ .'-$$-'   ",
"                             . +@##@+ .      . +@##@+ .-;%%;-   ",
"             ..              . $%&&%$ .      . $%&&%$..+@##@+ . ",
"                             . +@##@+ .      . +@##@+..$%&&%$ . ",
"           '-$$-'              -;%%;-          -;%%;-. +@##@+ . ",
"           -;%%;-              '-$$-'          '-$$-'. +@##@+ . ",
"         . +@##@+ .                                  . $%&&%$ . ",
"         . $%&&%$ .              ..              ..  . +@##@+ . ",
"         . +@##@+ .                                    -;%%;-   ",
"         . +@##@+ .                                    '-$$-'   ",
"         . $%&&%$ .                      ..                     ",
"         . +@##@+ .                                      ..     ",
"           -;%%;-                      '-$$-'                   ",
"           '-$$-'                      -;%%;-                   ",
"                                     . $%&&%*.=                 ",
"             ..                      . $%&&%$ .                 ",
"                                       -;%%>,$*-'               ",
"                                       '-*$,>%%;-               ",
"             ..                          . +@##@+ .             ",
"                                         =.*%&&%$ .             ",
"           '-$$-'                        . +@##@+ .             ",
"           -;%%;-                        . +@##@+ .             ",
"...      . $%&&%*.=                      . $%&&%$ .             ",
"         . $%&&%$ .                      . +@##@+ .             ",
"+$+-'      -;%%>,$*-'                      -;%%;-               ",
"@%@;-      '-*$,>%%;-                      '-$$-'               ",
"###@+ .      . +@##@+ .                                         ",
"#&#%$ .      =.*%&&%$ .                      ..                 ",
"###@+ .      . +@##@+ .                                         ",
"###@+ .      . +@##@+ .                                         ",
"#&#%$ .      . $%&&%$ .          ..                             ",
"###@+ .      . +@##@+ .                                         ",
"@%@;-          -;%%;-          '-$$-'                           ",
"+$+-'          '-$$-'          -;%%;-                           ",
"                             . +@##@+ .                         ",
"...              ..          . $%&&%$ .                         ",
"                             . +@##@+ .                         ",
"                             . +@##@+ .                         ",
"                             . $%&&%$ .          ..             ",
"                             . +@##@+ .                         ",
"                               -;%%;-          '-$$-'           ",
"                               '-$$-'          -;%%;-           ",
"...                                          =.*%&&%$ .         ",
"                                 ..          . $%&&%$ .         ",
"+$+-'                                      '-*$,>%%;-           ",
"@%@;-                                      -;%%>,$*-'           ",
"#&#%*.=                                  . +@##@+ .             ",
"#&#%$ .                                  . $%&&%*.=             ",
"@%@>,$*-'                                . +@##@+ .             ",
"+*+,>%%;-                                . +@##@+ .             ",
" . +@##@+ .                              . $%&&%$ .             ",
".=.*%&&%$ .                              . +@##@+ .             ",
" . +@##@+ .                                -;%%;-               ",
" . +@##@+ .                                '-$$-'               ",
" . +@##@+ .                                                     ",
" . +@##@+ .                                  ..                 ",
" . +@##@+ .                                                     "};
